<svg id="Layer_1" data-name="Layer 1" xmlns="http://www.w3.org/2000/svg" viewBox="0 0 702.37 703.17"><title>tistory-logo-freelogovectors.net</title><path d="M101.51,25.85c-50.08,9.75-86,63-76,113.14,7.47,48.43,55.27,85.77,104.09,81.13,54.48-2.75,99-57.31,90-111.32-5.82-55-64.39-96-118.09-82.95" transform="translate(-23.82 -23.41)"/><path d="M353.33,26c-49.84,10.46-85.69,63.76-74.84,113.84,7.86,50.55,60.22,88.06,110.61,79.57C441.15,213,481,160,472.2,108.17,466,53.06,407,12.57,353.33,26" transform="translate(-23.82 -23.41)"/><path d="M604.68,26.48c-51.81,11.25-87,69.11-72,120.29,11.72,49.61,66.12,83.5,115.89,71.39,51.41-10.22,87.81-66,75.08-117.14-10-52.29-67.46-88.37-119-74.54" transform="translate(-23.82 -23.41)"/><path d="M337,284.43c-45.6,18.09-71.7,73.28-55.74,119.9,14.31,50.31,73.11,81.53,122.72,64.54,51.42-14.3,82.47-74.92,64.16-125-16-52.75-80.9-82.63-131.14-59.44" transform="translate(-23.82 -23.41)"/><path d="M343.66,534.76c-46.38,14.62-76.34,67.14-64.47,114.47,10,52.59,68.56,88.76,120.13,74.06,52.05-12.11,86.17-71,70.13-122.1-13.29-52.52-74.84-85.38-125.79-66.43Z" transform="translate(-23.82 -23.41)"/></svg>